# xmcd
#
# Track frame offsets:
#      150
#      17765
#      33048
#      49459
#      61365
#      75675
#      92086
#      108611
#      127946
#      143752
#      159122
#      177439
#      191631
#      208975
#      227598
#      245973
#      265211
# 
# Disc length: 3792 seconds
#
# Revision: 9
# Processed by: cddbd v1.4PL0 Copyright (c) Steve Scherf et al.
#
# Submitted via: FreeRIP 1.21
#
DISCID=ed0ece11
DTITLE=Kenny Chesney - Greatest Hits
DYEAR=2000
DGENRE=Country
TTITLE0=I Lost It
TTITLE1=Don't Happen Twice
TTITLE2=The Tin Man
TTITLE3=Fall In Love
TTITLE4=All I Need to Know
TTITLE5=For The First Time
TTITLE6=Me and You
TTITLE7=Back Where I Come From
TTITLE8=When I Close My Eyes
TTITLE9=She's Got It All
TTITLE10=That's Why I'm Here
TTITLE11=How Forever Feels
TTITLE12=You Had Me From Hello
TTITLE13=She Thinks My Tractor's Sexy
TTITLE14=What I Need to Do
TTITLE15=Baptism (w/ Randy Travis)
TTITLE16=Because of Your Love
EXTD=YEAR: 2000 ID3G:   2
EXTT0=
EXTT1=
EXTT2=
EXTT3=
EXTT4=
EXTT5=
EXTT6=
EXTT7=
EXTT8=
EXTT9=
EXTT10=
EXTT11=
EXTT12=
EXTT13=
EXTT14=
EXTT15=
EXTT16=
PLAYORDER=
